<svg fill="none" height="264" viewBox="0 0 264 264" width="264" xmlns="http://www.w3.org/2000/svg" xmlns:xlink="http://www.w3.org/1999/xlink"><clipPath id="a"><path d="m0 0h264v264h-264z"/></clipPath><g clip-path="url(#a)"><path d="m0 0h264v264h-264z" fill="#758ebb"/><path d="m129.349 66.193 145.186-41.9953 5.286 56.1666z" fill="#fff5c1"/><path d="m106.528 155.419-12.9509 109.342h76.8419l-12.951-109.342c.719-.288 2.158-1.123 2.158-2.161 0-1.037-2.014-1.584-3.022-1.728l-2.158-34.575 1.727-.432c.719.432 2.245 1.124 2.59.432v-15.991s-5.381-1.4482-9.066-1.2963v-6.0505c.72-.1441 2.331-.6051 3.022-1.2966 0 0 .288-8.3555 0-12.1011-.719-.4322-2.417-1.2965-3.453-1.2965 0 0-.432-16.1348 0-24.2022l2.59.4321-18.131-15.9907v-4.754c.575-.8644 1.726-2.9389 1.726-4.3218 0-1.7288-1.295-3.4575-3.021-3.4575h-.864c-1.727 0-3.022 1.7287-3.022 3.4575 0 1.3829 1.152 3.4574 1.727 4.3218v4.754l-18.131 15.9907 2.59-.4321c.432 8.0674 0 24.2022 0 24.2022-1.036 0-2.734.8643-3.453 1.2965-.288 3.7456 0 12.1011 0 12.1011.69.6915 2.302 1.1525 3.021 1.2966v6.0505c-3.684-.1519-9.065 1.2963-9.065 1.2963v15.991c.345.692 1.871 0 2.59-.432l1.727.432-2.159 34.575c-1.007.144-3.022.691-3.022 1.728 0 1.038 1.439 1.873 2.159 2.161z" fill="#324c83"/></g></svg>